<?xml version="1.0" encoding="utf-8"?>
<!-- Generator: Adobe Illustrator 27.5.0, SVG Export Plug-In . SVG Version: 6.00 Build 0)  -->
<svg version="1.1" xmlns="http://www.w3.org/2000/svg" xmlns:xlink="http://www.w3.org/1999/xlink" x="0px" y="0px"
	 viewBox="0 0 1200 800" style="enable-background:new 0 0 1200 800;" xml:space="preserve">
<g id="Background">
	<rect style="fill:#FFC0BD;" width="1200" height="800"/>
</g>
<g id="Graphic_Elements">
	<g>
		<g>
			<g>
				<path style="fill:#FFFFFF;" d="M506.591,440.249c8.763,0,16.725,1.688,23.883,5.063c7.158,3.376,13.122,7.962,17.886,13.756
					c4.764,5.796,8.149,12.574,10.151,20.338s2.231,16.034,0.683,24.81c-1.548,8.777-4.693,17.047-9.433,24.81
					c-4.739,7.764-10.515,14.544-17.323,20.338c-6.808,5.797-14.388,10.38-22.737,13.755c-8.348,3.376-16.906,5.063-25.669,5.063
					c-8.766,0-16.728-1.688-23.886-5.063c-7.158-3.376-13.122-7.959-17.886-13.755c-4.764-5.794-8.15-12.574-10.151-20.338
					c-2.001-7.764-2.228-16.034-0.681-24.81c1.548-8.776,4.691-17.047,9.43-24.81c4.739-7.764,10.515-14.541,17.323-20.338
					c6.807-5.794,14.388-10.38,22.737-13.756C489.268,441.936,497.825,440.249,506.591,440.249z M502.152,465.903
					c-5.29,0-10.448,1.013-15.472,3.033c-5.026,2.02-9.587,4.744-13.676,8.167c-4.092,3.423-7.561,7.466-10.408,12.126
					c-2.847,4.66-4.736,9.628-5.666,14.902c-0.93,5.277-0.794,10.246,0.41,14.905c1.204,4.66,3.242,8.729,6.117,12.21
					c2.872,3.481,6.467,6.232,10.781,8.252c4.312,2.02,9.112,3.03,14.403,3.03c5.288,0,10.444-1.01,15.471-3.03
					c5.024-2.02,9.56-4.771,13.607-8.252c4.045-3.481,7.492-7.55,10.339-12.21c2.847-4.66,4.736-9.628,5.667-14.905
					c0.93-5.274,0.793-10.243-0.41-14.902c-1.204-4.66-3.22-8.702-6.048-12.126c-2.83-3.423-6.4-6.147-10.712-8.167
					C512.24,466.916,507.439,465.903,502.152,465.903z"/>
				<linearGradient id="SVGID_1_" gradientUnits="userSpaceOnUse" x1="454.469" y1="524.4655" x2="576.2896" y2="524.4655">
					<stop  offset="0" style="stop-color:#8BCAFC"/>
					<stop  offset="0.9949" style="stop-color:#DB6569"/>
				</linearGradient>
				<path style="fill:url(#SVGID_1_);" d="M574.595,495.579c-2.001-7.764-5.387-14.541-10.151-20.338
					c-3.444-4.188-7.518-7.742-12.213-10.666c2.776,4.487,4.872,9.458,6.279,14.92c2.001,7.764,2.231,16.034,0.683,24.81
					c-1.548,8.777-4.693,17.047-9.433,24.81c-4.739,7.764-10.515,14.544-17.323,20.338c-6.808,5.796-14.388,10.38-22.737,13.755
					c-8.348,3.376-16.906,5.064-25.669,5.064c-8.766,0-16.728-1.688-23.886-5.064c-1.986-0.936-3.876-1.969-5.678-3.092
					c1.171,1.893,2.462,3.701,3.876,5.421c4.764,5.797,10.728,10.38,17.886,13.755c7.158,3.375,15.12,5.063,23.886,5.063
					c8.763,0,17.32-1.688,25.669-5.063c8.348-3.376,15.929-7.959,22.737-13.755c6.807-5.794,12.583-12.574,17.323-20.338
					c4.739-7.764,7.885-16.034,9.433-24.81C576.826,511.613,576.597,503.343,574.595,495.579z"/>
				
					<linearGradient id="SVGID_00000130648348090877045840000014193759489383547030_" gradientUnits="userSpaceOnUse" x1="456.3212" y1="502.9671" x2="531.7775" y2="502.9671">
					<stop  offset="0" style="stop-color:#93C7CA"/>
					<stop  offset="1" style="stop-color:#9DBEE5"/>
				</linearGradient>
				<path style="fill:url(#SVGID_00000130648348090877045840000014193759489383547030_);" d="M473.014,520.305
					c0.93-5.274,2.819-10.243,5.665-14.902c2.847-4.66,6.316-8.703,10.408-12.126c4.09-3.423,8.65-6.147,13.676-8.167
					c5.024-2.02,10.181-3.033,15.472-3.033c4.939,0,9.452,0.884,13.541,2.647c-1.156-2.776-2.658-5.287-4.512-7.531
					c-2.83-3.423-6.4-6.147-10.712-8.167c-4.314-2.02-9.115-3.033-14.402-3.033c-5.29,0-10.448,1.013-15.471,3.033
					c-5.026,2.02-9.587,4.744-13.677,8.167c-4.092,3.423-7.561,7.466-10.408,12.125c-2.847,4.66-4.736,9.628-5.666,14.903
					c-0.93,5.277-0.794,10.246,0.41,14.905c1.204,4.66,3.242,8.729,6.117,12.21c2.873,3.481,6.467,6.232,10.781,8.252
					c0.26,0.122,0.523,0.24,0.786,0.354c-0.638-1.504-1.174-3.079-1.601-4.731C472.22,530.55,472.084,525.582,473.014,520.305z"/>
			</g>
			<g>
				<path style="fill:#FFFFFF;" d="M663.812,440.249c8.763,0,16.725,1.688,23.883,5.063c7.158,3.376,13.122,7.962,17.886,13.756
					c4.764,5.796,8.149,12.574,10.151,20.338s2.231,16.034,0.683,24.81c-1.548,8.777-4.693,17.047-9.433,24.81
					c-4.739,7.764-10.515,14.544-17.323,20.338c-6.808,5.797-14.388,10.38-22.737,13.755c-8.348,3.376-16.906,5.063-25.669,5.063
					c-8.766,0-16.728-1.688-23.886-5.063c-7.158-3.376-13.122-7.959-17.886-13.755c-4.764-5.794-8.15-12.574-10.151-20.338
					c-2.001-7.764-2.228-16.034-0.681-24.81c1.547-8.776,4.691-17.047,9.43-24.81c4.739-7.764,10.515-14.541,17.323-20.338
					c6.807-5.794,14.388-10.38,22.737-13.756C646.489,441.936,655.046,440.249,663.812,440.249z M659.373,465.903
					c-5.29,0-10.448,1.013-15.472,3.033c-5.026,2.02-9.587,4.744-13.676,8.167c-4.093,3.423-7.561,7.466-10.408,12.126
					c-2.847,4.66-4.736,9.628-5.666,14.902c-0.93,5.277-0.794,10.246,0.41,14.905c1.204,4.66,3.242,8.729,6.117,12.21
					c2.872,3.481,6.467,6.232,10.781,8.252c4.312,2.02,9.112,3.03,14.403,3.03c5.288,0,10.445-1.01,15.471-3.03
					c5.024-2.02,9.56-4.771,13.607-8.252c4.045-3.481,7.492-7.55,10.339-12.21c2.847-4.66,4.736-9.628,5.667-14.905
					c0.93-5.274,0.793-10.243-0.41-14.902c-1.204-4.66-3.22-8.702-6.048-12.126c-2.83-3.423-6.4-6.147-10.712-8.167
					C669.461,466.916,664.66,465.903,659.373,465.903z"/>
				
					<linearGradient id="SVGID_00000129914234308276835750000000035113734766686141_" gradientUnits="userSpaceOnUse" x1="611.69" y1="524.4655" x2="733.5106" y2="524.4655">
					<stop  offset="0" style="stop-color:#8BCAFC"/>
					<stop  offset="0.9949" style="stop-color:#DB6569"/>
				</linearGradient>
				<path style="fill:url(#SVGID_00000129914234308276835750000000035113734766686141_);" d="M731.816,495.579
					c-2.001-7.764-5.387-14.541-10.151-20.338c-3.444-4.188-7.518-7.742-12.213-10.666c2.776,4.487,4.872,9.458,6.279,14.92
					c2.001,7.764,2.231,16.034,0.683,24.81c-1.548,8.777-4.693,17.047-9.433,24.81c-4.739,7.764-10.515,14.544-17.323,20.338
					c-6.808,5.796-14.388,10.38-22.737,13.755c-8.348,3.376-16.906,5.064-25.669,5.064c-8.766,0-16.728-1.688-23.886-5.064
					c-1.986-0.936-3.876-1.969-5.678-3.092c1.171,1.893,2.462,3.701,3.876,5.421c4.764,5.797,10.728,10.38,17.886,13.755
					c7.158,3.375,15.12,5.063,23.886,5.063c8.763,0,17.32-1.688,25.669-5.063c8.348-3.376,15.929-7.959,22.737-13.755
					c6.807-5.794,12.583-12.574,17.323-20.338c4.739-7.764,7.885-16.034,9.433-24.81
					C734.047,511.613,733.818,503.343,731.816,495.579z"/>
				
					<linearGradient id="SVGID_00000003088571233118626160000009580739736392031374_" gradientUnits="userSpaceOnUse" x1="613.5422" y1="502.9671" x2="688.9985" y2="502.9671">
					<stop  offset="0" style="stop-color:#93C7CA"/>
					<stop  offset="1" style="stop-color:#9DBEE5"/>
				</linearGradient>
				<path style="fill:url(#SVGID_00000003088571233118626160000009580739736392031374_);" d="M630.235,520.305
					c0.93-5.274,2.819-10.243,5.666-14.902c2.847-4.66,6.316-8.703,10.408-12.126c4.09-3.423,8.65-6.147,13.676-8.167
					c5.024-2.02,10.181-3.033,15.471-3.033c4.939,0,9.452,0.884,13.542,2.647c-1.156-2.776-2.658-5.287-4.512-7.531
					c-2.83-3.423-6.4-6.147-10.712-8.167c-4.314-2.02-9.115-3.033-14.402-3.033c-5.29,0-10.448,1.013-15.471,3.033
					c-5.026,2.02-9.587,4.744-13.677,8.167c-4.093,3.423-7.561,7.466-10.408,12.125c-2.847,4.66-4.736,9.628-5.666,14.903
					c-0.93,5.277-0.794,10.246,0.41,14.905c1.204,4.66,3.242,8.729,6.117,12.21c2.873,3.481,6.467,6.232,10.781,8.252
					c0.26,0.122,0.523,0.24,0.786,0.354c-0.638-1.504-1.174-3.079-1.601-4.731C629.441,530.55,629.305,525.582,630.235,520.305z"/>
			</g>
			<g>
				<path style="fill:none;stroke:#000000;stroke-width:0.2646;" d="M865.934,456.356h25.485L868.862,584.29h-29.705l-36.28-85.233
					l-15.029,85.233h-25.486l22.558-127.934h29.874l36.081,85.402L865.934,456.356z"/>
				
					<linearGradient id="SVGID_00000113329631277880081440000009816943389923949964_" gradientUnits="userSpaceOnUse" x1="746.3207" y1="576.1993" x2="787.9326" y2="576.1993">
					<stop  offset="0" style="stop-color:#93C7CA"/>
					<stop  offset="1" style="stop-color:#9DBEE5"/>
				</linearGradient>
				<polygon style="fill:url(#SVGID_00000113329631277880081440000009816943389923949964_);" points="746.321,568.225 
					762.363,584.263 787.933,584.263 771.764,568.136 				"/>
				
					<linearGradient id="SVGID_00000058567428752131102830000015264026754644084878_" gradientUnits="userSpaceOnUse" x1="823.0844" y1="576.1993" x2="868.8856" y2="576.1993">
					<stop  offset="0" style="stop-color:#93C7CA"/>
					<stop  offset="1" style="stop-color:#9DBEE5"/>
				</linearGradient>
				<polygon style="fill:url(#SVGID_00000058567428752131102830000015264026754644084878_);" points="823.084,568.225 
					839.157,584.263 868.886,584.263 852.777,568.136 				"/>
				
					<linearGradient id="SVGID_00000183929192071428736590000003246031040910958771_" gradientUnits="userSpaceOnUse" x1="771.7641" y1="533.6644" x2="802.8773" y2="533.6644">
					<stop  offset="0" style="stop-color:#93C7CA"/>
					<stop  offset="1" style="stop-color:#787FB1"/>
				</linearGradient>
				<polygon style="fill:url(#SVGID_00000183929192071428736590000003246031040910958771_);" points="771.764,568.206 
					786.793,482.973 802.877,499.057 787.933,584.356 				"/>
				
					<linearGradient id="SVGID_00000049910519340835904250000000167847668059177891_" gradientUnits="userSpaceOnUse" x1="852.7773" y1="512.314" x2="891.4197" y2="512.314">
					<stop  offset="0" style="stop-color:#8BCAFC"/>
					<stop  offset="0.9949" style="stop-color:#DB6569"/>
				</linearGradient>
				<polygon style="fill:url(#SVGID_00000049910519340835904250000000167847668059177891_);" points="875.335,440.272 
					891.42,456.356 868.886,584.356 852.777,568.206 				"/>
				
					<linearGradient id="SVGID_00000090290467190912640940000002500053835147645104_" gradientUnits="userSpaceOnUse" x1="798.7104" y1="491.015" x2="850.8759" y2="491.015">
					<stop  offset="0" style="stop-color:#93C7CA"/>
					<stop  offset="1" style="stop-color:#787FB1"/>
				</linearGradient>
				<polygon style="fill:url(#SVGID_00000090290467190912640940000002500053835147645104_);" points="798.71,440.272 
					814.795,456.356 850.876,541.758 834.792,525.674 				"/>
				<path style="fill:#FFFFFF;" d="M849.85,440.272h25.485l-22.558,127.934h-29.705l-36.28-85.233l-15.029,85.233h-25.486
					l22.558-127.934h29.874l36.081,85.402L849.85,440.272z"/>
			</g>
			<g>
				
					<linearGradient id="SVGID_00000072252323840290371690000008506449222985493695_" gradientUnits="userSpaceOnUse" x1="341.9786" y1="474.6574" x2="415.3876" y2="474.6574">
					<stop  offset="0" style="stop-color:#93C7CA"/>
					<stop  offset="1" style="stop-color:#787FB1"/>
				</linearGradient>
				<path style="fill:url(#SVGID_00000072252323840290371690000008506449222985493695_);" d="M398.87,458.942
					c-1.647-0.62-3.333-1.157-5.058-1.615l-16.448,13.983c-2.61-1.927-5.599-3.458-8.972-4.593
					c-3.373-1.132-7.044-1.701-11.013-1.701c-3.631,0-6.913,1.249-9.846,3.742c-2.936,2.496-4.722,5.558-5.362,9.186
					c-0.52,2.951,0.008,5.728,1.584,8.336c1.633,2.27,3.917,3.742,6.851,4.423c2.647,0.615,5.421,1.043,8.319,1.287
					c0.883-2.697,2.487-5.037,4.819-7.02c2.933-2.493,6.215-3.742,9.846-3.742c3.968,0,7.64,0.569,11.013,1.701
					c3.372,1.135,6.361,2.666,8.971,4.593l21.812-18.542C410.704,464.669,405.196,461.323,398.87,458.942z"/>
				<path style="fill:#FFFFFF;" d="M339.308,515.343c-4.018-1.018-7.601-2.717-10.754-5.095c-3.153-2.376-5.775-5.207-7.859-8.492
					c-2.087-3.283-3.509-6.962-4.263-11.039c-0.757-4.075-0.734-8.378,0.064-12.908c0.938-5.321,2.842-10.329,5.712-15.028
					c2.87-4.699,6.342-8.803,10.422-12.315c4.077-3.509,8.649-6.284,13.715-8.322c5.064-2.036,10.262-3.057,15.594-3.057
					c7.485,0,14.391,1.191,20.719,3.572c6.326,2.382,11.834,5.728,16.517,10.037l-21.812,18.542
					c-2.611-1.927-5.599-3.458-8.972-4.593c-3.373-1.132-7.044-1.701-11.013-1.701c-3.631,0-6.913,1.249-9.846,3.742
					c-2.936,2.496-4.722,5.558-5.362,9.186c-0.52,2.951,0.008,5.728,1.584,8.335c1.633,2.27,3.917,3.743,6.851,4.423
					c2.931,0.681,6.017,1.135,9.257,1.361c5.161,0.229,9.862,1.305,14.102,3.232c4.237,1.93,7.711,4.508,10.421,7.74
					c2.71,3.232,4.63,7.089,5.764,11.568c1.132,4.481,1.219,9.441,0.259,14.885c-0.94,5.332-2.845,10.35-5.711,15.055
					c-2.866,4.707-6.332,8.79-10.392,12.248c-4.063,3.461-8.622,6.209-13.679,8.251c-5.057,2.041-10.244,3.062-15.563,3.062
					c-8.716,0-16.583-1.598-23.603-4.795c-7.02-3.195-12.922-7.591-17.706-13.186l21.42-18.252
					c2.934,3.291,6.481,5.842,10.643,7.655c4.159,1.815,8.791,2.722,13.895,2.722c3.514,0,6.74-1.244,9.674-3.735
					c2.932-2.49,4.721-5.547,5.36-9.173c0.339-1.924,0.269-3.79-0.203-5.603c-0.475-1.813-1.531-3.227-3.164-4.247
					c-1.43-0.904-3.072-1.555-4.93-1.951c-1.86-0.396-3.793-0.68-5.804-0.85c-2.011-0.17-4.023-0.34-6.034-0.51
					C342.605,515.936,340.834,515.683,339.308,515.343z"/>
				
					<linearGradient id="SVGID_00000164494194786281806250000015296120597784305294_" gradientUnits="userSpaceOnUse" x1="377.3644" y1="470.1437" x2="415.3875" y2="470.1437">
					<stop  offset="0" style="stop-color:#8BCAFC"/>
					<stop  offset="0.9949" style="stop-color:#DB6569"/>
				</linearGradient>
				<polygon style="fill:url(#SVGID_00000164494194786281806250000015296120597784305294_);" points="377.364,471.309 
					393.576,487.521 415.387,468.978 399.176,452.767 				"/>
				<g>
					
						<linearGradient id="SVGID_00000178176708161815004410000006769240533482577086_" gradientUnits="userSpaceOnUse" x1="310.6135" y1="543.6955" x2="407.3446" y2="543.6955">
						<stop  offset="0" style="stop-color:#8BCAFC"/>
						<stop  offset="0.9949" style="stop-color:#DB6569"/>
					</linearGradient>
					<path style="fill:url(#SVGID_00000178176708161815004410000006769240533482577086_);" d="M406.48,531.182
						c-1.102-4.487-2.994-8.357-5.681-11.609c-0.705-0.853-1.463-1.66-2.274-2.423l0.001-0.001l-14.139-14.114
						c2.71,3.232,4.63,7.089,5.764,11.568c1.132,4.481,1.219,9.441,0.259,14.885c-0.94,5.332-2.845,10.35-5.711,15.055
						c-2.866,4.707-6.332,8.79-10.392,12.248c-4.063,3.461-8.622,6.209-13.679,8.251c-5.057,2.041-10.244,3.062-15.563,3.062
						c-8.716,0-16.583-1.598-23.603-4.795c-3.976-1.809-7.592-4.005-10.85-6.585l9.219,9.353
						c4.743,5.629,10.613,10.068,17.61,13.314c6.996,3.248,14.852,4.903,23.568,4.965c5.319,0.039,10.513-0.945,15.585-2.95
						c5.071-2.005,9.65-4.72,13.738-8.151c4.085-3.429,7.58-7.486,10.48-12.173c2.9-4.684,4.841-9.689,5.82-15.013
						C407.631,540.632,407.579,535.671,406.48,531.182z"/>
					
						<linearGradient id="SVGID_00000075163513160249627360000006457833622962994357_" gradientUnits="userSpaceOnUse" x1="303.738" y1="549.8425" x2="304.2238" y2="549.8425">
						<stop  offset="0" style="stop-color:#8BCAFC"/>
						<stop  offset="0.9949" style="stop-color:#DB6569"/>
					</linearGradient>
					<polygon style="fill:url(#SVGID_00000075163513160249627360000006457833622962994357_);" points="304.224,549.725 
						303.738,549.747 303.947,549.96 					"/>
				</g>
				
					<linearGradient id="SVGID_00000085235352952409881120000011481597408757475261_" gradientUnits="userSpaceOnUse" x1="326.1398" y1="520.4997" x2="364.9622" y2="520.4997">
					<stop  offset="0" style="stop-color:#93C7CA"/>
					<stop  offset="1" style="stop-color:#9DBEE5"/>
				</linearGradient>
				<path style="fill:url(#SVGID_00000085235352952409881120000011481597408757475261_);" d="M364.548,523.735
					c-0.475-1.813-1.531-3.227-3.164-4.247c-1.43-0.904-3.072-1.555-4.93-1.951c-1.86-0.396-3.793-0.68-5.804-0.851
					c-2.011-0.17-4.023-0.34-6.034-0.51c-2.011-0.17-3.782-0.423-5.309-0.763c-4.017-1.018-7.601-2.716-10.754-5.095
					c-0.843-0.635-1.644-1.305-2.411-2.005l-0.003,0.001l15.455,15.232c0.017,0.018,0.035,0.035,0.053,0.052l0.142,0.14l0.004,0
					c0.974,0.96,2.012,1.867,3.12,2.715c3.136,2.401,6.707,4.126,10.717,5.173c1.524,0.351,3.293,0.616,5.303,0.801
					c0.943,0.087,1.886,0.173,2.83,0.26c0.449-1.056,0.779-2.172,0.987-3.348C365.09,527.414,365.02,525.548,364.548,523.735z"/>
			</g>
		</g>
		<g>
			<g>
				<path style="fill:#FFFFFF;" d="M385.74,217.72c8.707,0,16.619,1.677,23.732,5.031c7.113,3.354,13.038,7.911,17.772,13.668
					c4.734,5.76,8.098,12.494,10.086,20.209c1.989,7.714,2.217,15.932,0.679,24.653c-1.538,8.721-4.664,16.938-9.373,24.653
					c-4.709,7.714-10.449,14.451-17.213,20.208c-6.765,5.76-14.297,10.314-22.592,13.668c-8.295,3.354-16.798,5.031-25.506,5.031
					c-8.71,0-16.622-1.677-23.734-5.031c-7.113-3.354-13.039-7.908-17.772-13.668c-4.734-5.757-8.098-12.494-10.087-20.208
					c-1.988-7.715-2.214-15.932-0.676-24.653c1.538-8.721,4.661-16.938,9.37-24.653c4.709-7.714,10.449-14.449,17.213-20.209
					c6.764-5.757,14.297-10.314,22.592-13.668C368.527,219.397,377.03,217.72,385.74,217.72z M381.329,243.211
					c-5.257,0-10.381,1.006-15.374,3.014c-4.994,2.007-9.526,4.714-13.59,8.115c-4.066,3.401-7.513,7.418-10.342,12.049
					c-2.829,4.63-4.706,9.567-5.63,14.808c-0.924,5.244-0.789,10.181,0.407,14.811c1.196,4.63,3.222,8.673,6.078,12.132
					c2.854,3.459,6.426,6.192,10.713,8.199c4.284,2.007,9.055,3.011,14.311,3.011c5.254,0,10.378-1.004,15.373-3.011
					c4.992-2.007,9.499-4.74,13.521-8.199c4.019-3.459,7.444-7.502,10.273-12.132c2.829-4.63,4.706-9.567,5.63-14.811
					c0.924-5.241,0.788-10.178-0.408-14.808c-1.196-4.63-3.2-8.647-6.009-12.049c-2.812-3.401-6.36-6.108-10.644-8.115
					C391.353,244.217,386.583,243.211,381.329,243.211z"/>
				
					<linearGradient id="SVGID_00000029044913915152453900000017754286553677799296_" gradientUnits="userSpaceOnUse" x1="333.9493" y1="301.402" x2="454.9966" y2="301.402">
					<stop  offset="0" style="stop-color:#8BCAFC"/>
					<stop  offset="0.9949" style="stop-color:#DB6569"/>
				</linearGradient>
				<path style="fill:url(#SVGID_00000029044913915152453900000017754286553677799296_);" d="M453.313,272.699
					c-1.989-7.715-5.353-14.449-10.086-20.209c-3.422-4.161-7.47-7.692-12.135-10.599c2.758,4.459,4.841,9.398,6.24,14.825
					c1.989,7.714,2.217,15.932,0.679,24.653c-1.538,8.721-4.664,16.938-9.373,24.653c-4.709,7.715-10.449,14.452-17.213,20.209
					c-6.765,5.76-14.297,10.314-22.592,13.668c-8.295,3.354-16.798,5.031-25.506,5.031c-8.71,0-16.622-1.677-23.734-5.031
					c-1.973-0.931-3.852-1.957-5.642-3.072c1.163,1.882,2.447,3.678,3.852,5.386c4.733,5.76,10.66,10.314,17.772,13.668
					c7.113,3.354,15.024,5.031,23.734,5.031c8.707,0,17.211-1.677,25.506-5.031c8.295-3.354,15.827-7.908,22.592-13.668
					c6.764-5.757,12.504-12.494,17.213-20.209c4.709-7.715,7.835-15.932,9.373-24.653
					C455.529,288.631,455.302,280.413,453.313,272.699z"/>
				
					<linearGradient id="SVGID_00000168819544856108038320000000753969040108334745_" gradientUnits="userSpaceOnUse" x1="335.7897" y1="280.0401" x2="410.767" y2="280.0401">
					<stop  offset="0" style="stop-color:#93C7CA"/>
					<stop  offset="1" style="stop-color:#9DBEE5"/>
				</linearGradient>
				<path style="fill:url(#SVGID_00000168819544856108038320000000753969040108334745_);" d="M352.377,297.268
					c0.924-5.241,2.801-10.178,5.629-14.808c2.829-4.63,6.276-8.647,10.342-12.049c4.064-3.401,8.595-6.108,13.59-8.115
					c4.992-2.007,10.117-3.014,15.373-3.014c4.908,0,9.392,0.879,13.456,2.63c-1.148-2.758-2.642-5.254-4.483-7.483
					c-2.812-3.401-6.359-6.108-10.644-8.115c-4.287-2.007-9.057-3.014-14.311-3.014c-5.257,0-10.381,1.006-15.373,3.014
					c-4.995,2.007-9.526,4.714-13.59,8.115c-4.066,3.402-7.513,7.418-10.342,12.049c-2.829,4.63-4.706,9.567-5.63,14.808
					c-0.924,5.244-0.789,10.181,0.407,14.811c1.196,4.63,3.221,8.673,6.078,12.132c2.854,3.459,6.426,6.192,10.713,8.199
					c0.259,0.121,0.519,0.238,0.781,0.352c-0.634-1.494-1.166-3.059-1.591-4.701C351.588,307.448,351.452,302.511,352.377,297.268z"
					/>
			</g>
			<g>
				<path style="fill:none;stroke:#000000;stroke-width:0.2646;" d="M844.164,233.725h25.323l-22.415,127.121h-29.516
					l-36.049-84.692l-14.933,84.692H741.25l22.415-127.121h29.684l35.852,84.86L844.164,233.725z"/>
				
					<linearGradient id="SVGID_00000088826535251942438140000010201035539816860301_" gradientUnits="userSpaceOnUse" x1="725.31" y1="352.8076" x2="766.6578" y2="352.8076">
					<stop  offset="0" style="stop-color:#93C7CA"/>
					<stop  offset="1" style="stop-color:#9DBEE5"/>
				</linearGradient>
				<polygon style="fill:url(#SVGID_00000088826535251942438140000010201035539816860301_);" points="725.31,344.884 741.25,360.82 
					766.658,360.82 750.592,344.795 				"/>
				
					<linearGradient id="SVGID_00000142890930411160581190000014827156487070114739_" gradientUnits="userSpaceOnUse" x1="801.5864" y1="352.8076" x2="847.0969" y2="352.8076">
					<stop  offset="0" style="stop-color:#93C7CA"/>
					<stop  offset="1" style="stop-color:#9DBEE5"/>
				</linearGradient>
				<polygon style="fill:url(#SVGID_00000142890930411160581190000014827156487070114739_);" points="801.586,344.884 
					817.557,360.82 847.097,360.82 831.091,344.795 				"/>
				
					<linearGradient id="SVGID_00000001662473371265122490000009865294979563537570_" gradientUnits="userSpaceOnUse" x1="750.5918" y1="310.5426" x2="781.5076" y2="310.5426">
					<stop  offset="0" style="stop-color:#93C7CA"/>
					<stop  offset="1" style="stop-color:#787FB1"/>
				</linearGradient>
				<polygon style="fill:url(#SVGID_00000001662473371265122490000009865294979563537570_);" points="750.592,344.864 
					765.525,260.173 781.508,276.155 766.658,360.913 				"/>
				
					<linearGradient id="SVGID_00000011015428923656872280000009182792219616123565_" gradientUnits="userSpaceOnUse" x1="831.0908" y1="289.3278" x2="869.488" y2="289.3278">
					<stop  offset="0" style="stop-color:#8BCAFC"/>
					<stop  offset="0.9949" style="stop-color:#DB6569"/>
				</linearGradient>
				<polygon style="fill:url(#SVGID_00000011015428923656872280000009182792219616123565_);" points="853.506,217.743 
					869.488,233.725 847.097,360.913 831.091,344.864 				"/>
				
					<linearGradient id="SVGID_00000015344618934829838840000002510132827580519558_" gradientUnits="userSpaceOnUse" x1="777.3671" y1="268.1639" x2="829.2015" y2="268.1639">
					<stop  offset="0" style="stop-color:#93C7CA"/>
					<stop  offset="1" style="stop-color:#787FB1"/>
				</linearGradient>
				<polygon style="fill:url(#SVGID_00000015344618934829838840000002510132827580519558_);" points="777.367,217.743 
					793.349,233.725 829.201,318.585 813.219,302.602 				"/>
				<path style="fill:#FFFFFF;" d="M828.182,217.743h25.323l-22.415,127.121h-29.516l-36.049-84.692l-14.933,84.692h-25.324
					l22.415-127.121h29.684l35.852,84.859L828.182,217.743z"/>
			</g>
			<g>
				<path style="fill:#FFFFFF;" d="M674.176,216.74h25.472l-22.546,127.866H651.63L674.176,216.74z"/>
				
					<linearGradient id="SVGID_00000182516607419364061910000016991477170298896768_" gradientUnits="userSpaceOnUse" x1="651.6301" y1="352.9247" x2="693.178" y2="352.9247">
					<stop  offset="0" style="stop-color:#93C7CA"/>
					<stop  offset="1" style="stop-color:#9DBEE5"/>
				</linearGradient>
				<polygon style="fill:url(#SVGID_00000182516607419364061910000016991477170298896768_);" points="667.756,360.913 
					651.63,344.937 677.202,344.937 693.178,360.884 				"/>
				
					<linearGradient id="SVGID_00000046307556812304336270000013299622635558816912_" gradientUnits="userSpaceOnUse" x1="677.2025" y1="288.7627" x2="715.7242" y2="288.7627">
					<stop  offset="0" style="stop-color:#8BCAFC"/>
					<stop  offset="0.9949" style="stop-color:#DB6569"/>
				</linearGradient>
				<polygon style="fill:url(#SVGID_00000046307556812304336270000013299622635558816912_);" points="699.648,216.792 
					715.724,232.868 693.178,360.734 677.202,344.736 				"/>
			</g>
			<g>
				
					<linearGradient id="SVGID_00000075845723730134038970000005057372091069721241_" gradientUnits="userSpaceOnUse" x1="191.2186" y1="296.3633" x2="309.3798" y2="296.3633">
					<stop  offset="0" style="stop-color:#93C7CA"/>
					<stop  offset="1" style="stop-color:#787FB1"/>
				</linearGradient>
				<path style="fill:url(#SVGID_00000075845723730134038970000005057372091069721241_);" d="M268.112,231.863
					c8.621,0,16.454,1.59,23.497,4.765c7.039,3.178,12.965,7.547,17.771,13.104l-21.451,18.38
					c-2.824-3.289-6.317-5.842-10.478-7.658c-4.164-1.813-8.795-2.723-13.901-2.723c-5.334,0-10.535,1.021-15.602,3.063
					c-5.07,2.042-9.669,4.794-13.794,8.254c-4.129,3.462-7.628,7.547-10.5,12.254c-2.873,4.709-4.779,9.73-5.719,15.061
					c-0.941,5.334-0.805,10.355,0.407,15.061c1.212,4.709,3.265,8.823,6.164,12.339c2.895,3.518,6.523,6.27,10.883,8.254
					c4.356,1.987,9.202,2.979,14.536,2.979c5.106,0,10.057-0.907,14.861-2.723c4.801-1.814,9.184-4.311,13.148-7.488l14.999,18.21
					c-6.767,5.56-14.233,9.93-22.393,13.104c-8.163,3.178-16.556,4.765-25.177,4.765c-8.85,0-16.889-1.702-24.117-5.105
					c-7.228-3.404-13.25-8.025-18.062-13.87c-4.815-5.842-8.231-12.679-10.254-20.508c-2.023-7.829-2.255-16.168-0.694-25.017
					c1.56-8.85,4.733-17.189,9.517-25.018c4.784-7.828,10.611-14.663,17.486-20.507c6.872-5.842,14.525-10.466,22.953-13.87
					C250.623,233.564,259.262,231.863,268.112,231.863z"/>
				<path style="fill:#FFFFFF;" d="M251.893,215.644c8.621,0,16.454,1.59,23.496,4.765c7.04,3.178,12.965,7.547,17.771,13.104
					l-21.451,18.38c-2.824-3.29-6.317-5.842-10.478-7.659c-4.164-1.813-8.795-2.723-13.901-2.723
					c-5.334,0-10.535,1.021-15.602,3.063c-5.069,2.042-9.668,4.794-13.794,8.254c-4.129,3.462-7.628,7.547-10.5,12.253
					c-2.873,4.709-4.779,9.73-5.719,15.061c-0.941,5.335-0.805,10.355,0.408,15.062c1.212,4.709,3.265,8.823,6.164,12.338
					c2.895,3.518,6.523,6.27,10.883,8.254c4.356,1.986,9.202,2.978,14.536,2.978c5.106,0,10.057-0.907,14.861-2.723
					c4.801-1.814,9.184-4.311,13.148-7.488l14.999,18.21c-6.767,5.56-14.233,9.929-22.393,13.104
					c-8.163,3.178-16.556,4.765-25.177,4.765c-8.85,0-16.889-1.702-24.117-5.105c-7.228-3.404-13.25-8.026-18.062-13.87
					c-4.815-5.842-8.231-12.679-10.254-20.508c-2.023-7.829-2.255-16.168-0.694-25.018c1.56-8.85,4.733-17.189,9.517-25.017
					c4.784-7.828,10.611-14.663,17.486-20.507c6.872-5.842,14.524-10.467,22.953-13.87
					C234.404,217.346,243.043,215.644,251.893,215.644z"/>
				
					<linearGradient id="SVGID_00000079454920580112828610000002533734961350035122_" gradientUnits="userSpaceOnUse" x1="261.7173" y1="325.8456" x2="292.935" y2="325.8456">
					<stop  offset="0" style="stop-color:#93C7CA"/>
					<stop  offset="1" style="stop-color:#9DBEE5"/>
				</linearGradient>
				<polygon style="fill:url(#SVGID_00000079454920580112828610000002533734961350035122_);" points="276.716,326.841 
					292.935,343.06 277.936,324.85 261.717,308.631 				"/>
				
					<linearGradient id="SVGID_00000178911923920338118530000004700439212124861331_" gradientUnits="userSpaceOnUse" x1="271.7101" y1="250.8784" x2="309.3798" y2="250.8784">
					<stop  offset="0" style="stop-color:#8BCAFC"/>
					<stop  offset="0.9949" style="stop-color:#DB6569"/>
				</linearGradient>
				<polygon style="fill:url(#SVGID_00000178911923920338118530000004700439212124861331_);" points="271.71,251.959 
					287.929,268.178 309.38,249.798 293.161,233.579 				"/>
				<g>
					
						<linearGradient id="SVGID_00000000942190233218590890000014240685309396813698_" gradientUnits="userSpaceOnUse" x1="188.8105" y1="328.3315" x2="189.7773" y2="328.3315">
						<stop  offset="0" style="stop-color:#93C7CA"/>
						<stop  offset="1" style="stop-color:#9DBEE5"/>
					</linearGradient>
					<path style="fill:url(#SVGID_00000000942190233218590890000014240685309396813698_);" d="M188.857,327.847l-0.046-0.001
						l0.967,0.97C189.466,328.498,189.16,328.175,188.857,327.847z"/>
					
						<linearGradient id="SVGID_00000094614991052767642250000013291600136274873738_" gradientUnits="userSpaceOnUse" x1="189.9342" y1="342.8802" x2="292.935" y2="342.8802">
						<stop  offset="0" style="stop-color:#93C7CA"/>
						<stop  offset="1" style="stop-color:#9DBEE5"/>
					</linearGradient>
					<path style="fill:url(#SVGID_00000094614991052767642250000013291600136274873738_);" d="M276.205,326.169l0.511,0.621
						c-6.767,5.56-14.233,9.929-22.393,13.104c-8.163,3.178-16.556,4.765-25.177,4.765c-8.85,0-16.889-1.702-24.117-5.105
						c-5.813-2.737-10.845-6.298-15.095-10.614l16.409,16.428h0.004c4.21,4.334,9.176,7.725,14.902,10.422
						c7.229,3.404,15.268,5.123,24.117,5.123c8.621,0,17.014-1.579,25.177-4.757c8.16-3.175,15.626-7.54,22.393-13.1l-14.999-18.208
						C277.368,325.303,276.79,325.742,276.205,326.169z"/>
				</g>
			</g>
			<g>
				<g>
					
						<linearGradient id="SVGID_00000034807427551797143300000006893884551282011818_" gradientUnits="userSpaceOnUse" x1="466.2393" y1="352.729" x2="507.8709" y2="352.729">
						<stop  offset="0" style="stop-color:#93C7CA"/>
						<stop  offset="1" style="stop-color:#9DBEE5"/>
					</linearGradient>
					<polygon style="fill:url(#SVGID_00000034807427551797143300000006893884551282011818_);" points="466.239,344.679 
						482.349,360.797 507.871,360.797 491.764,344.661 					"/>
					
						<linearGradient id="SVGID_00000065795306339521738820000017480195598275100319_" gradientUnits="userSpaceOnUse" x1="517.411" y1="352.4334" x2="561.0261" y2="352.4334">
						<stop  offset="0" style="stop-color:#93C7CA"/>
						<stop  offset="1" style="stop-color:#9DBEE5"/>
					</linearGradient>
					<polygon style="fill:url(#SVGID_00000065795306339521738820000017480195598275100319_);" points="517.411,344.431 
						533.565,360.436 561.026,360.436 545.009,344.491 					"/>
					
						<linearGradient id="SVGID_00000007426324107998630380000014139209763212605101_" gradientUnits="userSpaceOnUse" x1="570.6859" y1="352.4334" x2="612.3021" y2="352.4334">
						<stop  offset="0" style="stop-color:#93C7CA"/>
						<stop  offset="1" style="stop-color:#9DBEE5"/>
					</linearGradient>
					<polygon style="fill:url(#SVGID_00000007426324107998630380000014139209763212605101_);" points="570.686,344.431 
						586.811,360.436 612.302,360.436 596.226,344.491 					"/>
					
						<linearGradient id="SVGID_00000104692326362545593060000005847506675517442436_" gradientUnits="userSpaceOnUse" x1="516.3845" y1="271.3969" x2="553.5065" y2="271.3969">
						<stop  offset="0" style="stop-color:#93C7CA"/>
						<stop  offset="1" style="stop-color:#787FB1"/>
					</linearGradient>
					<polygon style="fill:url(#SVGID_00000104692326362545593060000005847506675517442436_);" points="516.384,216.521 
						537.398,310.165 553.506,326.273 532.493,232.588 					"/>
					
						<linearGradient id="SVGID_00000106131070390677356170000007481276461417643154_" gradientUnits="userSpaceOnUse" x1="596.226" y1="288.5823" x2="634.9749" y2="288.5823">
						<stop  offset="0" style="stop-color:#8BCAFC"/>
						<stop  offset="0.9949" style="stop-color:#DB6569"/>
					</linearGradient>
					<polygon style="fill:url(#SVGID_00000106131070390677356170000007481276461417643154_);" points="596.226,344.647 
						618.818,216.521 634.975,232.589 612.302,360.644 					"/>
					
						<linearGradient id="SVGID_00000181770764971777318990000002413665267839165087_" gradientUnits="userSpaceOnUse" x1="491.764" y1="320.7482" x2="519.1687" y2="320.7482">
						<stop  offset="0" style="stop-color:#93C7CA"/>
						<stop  offset="1" style="stop-color:#787FB1"/>
					</linearGradient>
					<polygon style="fill:url(#SVGID_00000181770764971777318990000002413665267839165087_);" points="507.871,360.913 
						519.169,296.693 503.06,280.584 491.764,344.647 					"/>
					
						<linearGradient id="SVGID_00000080207318128997152210000008861334669578877864_" gradientUnits="userSpaceOnUse" x1="545.0092" y1="320.614" x2="598.1069" y2="320.614">
						<stop  offset="0" style="stop-color:#93C7CA"/>
						<stop  offset="1" style="stop-color:#787FB1"/>
					</linearGradient>
					<polygon style="fill:url(#SVGID_00000080207318128997152210000008861334669578877864_);" points="545.009,344.647 
						581.998,280.584 598.107,296.693 561.026,360.644 					"/>
					<path style="fill:#FFFFFF;" d="M517.457,344.647l-14.397-64.063l-11.296,64.063H466.24l22.592-128.127h27.552l21.013,93.644
						l53.868-93.644h27.552l-22.592,128.127h-25.524l11.296-64.063l-36.989,64.063H517.457z"/>
				</g>
				<path style="fill:#FFFFFF;" d="M517.457,344.647l-14.397-64.063l-11.296,64.063H466.24l22.592-128.127h27.552l21.013,93.644
					l53.868-93.644h27.552l-22.592,128.127h-25.524l11.296-64.063l-36.989,64.063H517.457z"/>
			</g>
			<g>
				
					<linearGradient id="SVGID_00000121271332712992760610000012717719217340628131_" gradientUnits="userSpaceOnUse" x1="905.4181" y1="276.679" x2="1012.9448" y2="276.679">
					<stop  offset="0" style="stop-color:#93C7CA"/>
					<stop  offset="1" style="stop-color:#787FB1"/>
				</linearGradient>
				<path style="fill:url(#SVGID_00000121271332712992760610000012717719217340628131_);" d="M993.92,236.925l-18.389,15.757
					c-2.805-3.267-6.274-5.803-10.407-7.606c-4.135-1.801-8.735-2.705-13.806-2.705c-5.298,0-10.464,1.014-15.495,3.037
					c-5.034,2.023-9.601,4.751-13.697,8.18c-4.099,3.428-7.573,7.477-10.424,12.144c-2.851,4.667-4.743,9.643-5.674,14.925
					c-0.932,5.285-0.795,10.261,0.411,14.928c1.206,4.667,3.247,8.742,6.127,12.228c2.877,3.486,6.477,6.241,10.797,8.264
					c0.262,0.123,0.526,0.242,0.792,0.357c-0.639-1.508-1.18-3.085-1.608-4.741c-1.205-4.667-1.343-9.643-0.411-14.928
					c0.931-5.282,2.823-10.258,5.674-14.925c2.851-4.667,6.325-8.716,10.424-12.144c4.096-3.428,8.663-6.156,13.697-8.18
					c5.032-2.023,10.197-3.037,15.495-3.037c5.071,0,9.671,0.903,13.806,2.704c4.132,1.804,7.602,4.339,10.407,7.606l21.305-18.255
					c-4.774-5.52-10.659-9.859-17.651-13.016C994.839,237.314,994.381,237.116,993.92,236.925z"/>
				
					<linearGradient id="SVGID_00000060018073850365025130000005572780787779260045_" gradientUnits="userSpaceOnUse" x1="975.5308" y1="251.6077" x2="1012.9449" y2="251.6077">
					<stop  offset="0" style="stop-color:#8BCAFC"/>
					<stop  offset="0.9949" style="stop-color:#DB6569"/>
				</linearGradient>
				<polygon style="fill:url(#SVGID_00000060018073850365025130000005572780787779260045_);" points="975.531,252.681 
					991.639,268.79 1012.945,250.535 996.836,234.426 				"/>
				
					<linearGradient id="SVGID_00000060022692262184536300000002230093812316854458_" gradientUnits="userSpaceOnUse" x1="940.4192" y1="311.7077" x2="987.2419" y2="311.7077">
					<stop  offset="0" style="stop-color:#93C7CA"/>
					<stop  offset="1" style="stop-color:#9DBEE5"/>
				</linearGradient>
				<polygon style="fill:url(#SVGID_00000060022692262184536300000002230093812316854458_);" points="940.419,303.691 
					956.577,319.724 987.242,319.724 971.232,303.785 				"/>
				<path style="fill:#FFFFFF;" d="M955.848,216.677c8.563,0,16.342,1.579,23.337,4.733c6.992,3.156,12.877,7.496,17.651,13.016
					l-21.305,18.255c-2.805-3.267-6.274-5.803-10.407-7.606c-4.135-1.801-8.735-2.705-13.806-2.705
					c-5.298,0-10.463,1.014-15.495,3.037c-5.034,2.023-9.601,4.751-13.697,8.18c-4.099,3.428-7.573,7.477-10.424,12.144
					c-2.851,4.667-4.743,9.643-5.674,14.925c-0.932,5.285-0.795,10.261,0.411,14.928c1.206,4.667,3.247,8.742,6.127,12.228
					c2.877,3.486,6.477,6.241,10.797,8.264c4.318,2.023,9.126,3.035,14.424,3.035c6.31,0,12.353-1.366,18.133-4.096
					c5.777-2.731,10.881-6.436,15.313-11.117h-30.764l4.53-25.693h12.677h25.693h25.524c-0.08,0.452-0.128,0.874-0.139,1.268
					c-0.015,0.396-0.06,0.819-0.139,1.268c-1.55,8.79-4.701,17.072-9.452,24.848c-4.752,7.775-10.542,14.566-17.368,20.368
					c-6.828,5.805-14.426,10.395-22.798,13.776c-8.371,3.381-16.952,5.071-25.742,5.071c-8.79,0-16.774-1.69-23.954-5.071
					c-7.179-3.381-13.16-7.971-17.939-13.776c-4.782-5.803-8.175-12.593-10.185-20.368c-2.009-7.776-2.239-16.058-0.69-24.848
					c1.55-8.79,4.701-17.072,9.452-24.848c4.752-7.776,10.539-14.563,17.368-20.368c6.826-5.803,14.426-10.395,22.797-13.776
					C938.478,218.368,947.059,216.677,955.848,216.677z"/>
				<g>
					
						<linearGradient id="SVGID_00000126291151300113977650000014314165156585251775_" gradientUnits="userSpaceOnUse" x1="1008.8932" y1="278.205" x2="1008.8932" y2="278.205">
						<stop  offset="0" style="stop-color:#8BCAFC"/>
						<stop  offset="0.9949" style="stop-color:#DB6569"/>
					</linearGradient>
					<polygon style="fill:url(#SVGID_00000126291151300113977650000014314165156585251775_);" points="1008.893,278.205 
						1008.893,278.205 1008.893,278.205 					"/>
					
						<linearGradient id="SVGID_00000151538661799742444440000011435598928699196832_" gradientUnits="userSpaceOnUse" x1="895.5483" y1="319.5588" x2="1025" y2="319.5588">
						<stop  offset="0" style="stop-color:#8BCAFC"/>
						<stop  offset="0.9949" style="stop-color:#DB6569"/>
					</linearGradient>
					<path style="fill:url(#SVGID_00000151538661799742444440000011435598928699196832_);" d="M1008.893,278.205
						c-0.08,0.452-0.128,0.874-0.139,1.268c-0.015,0.396-0.06,0.819-0.139,1.268c-1.55,8.79-4.701,17.072-9.452,24.848
						c-4.752,7.775-10.542,14.566-17.368,20.368c-6.828,5.805-14.426,10.395-22.798,13.776c-8.371,3.381-16.952,5.071-25.742,5.071
						c-8.79,0-16.774-1.69-23.954-5.071c-5.22-2.458-9.803-5.558-13.754-9.297l14.317,14.323c0.545,0.571,0.789,1.13,1.361,1.674
						l0.491,0.804v-0.051c3.973,3.455,8.462,6.34,13.382,8.657c7.18,3.381,15.32,5.071,24.11,5.071c8.79,0,17.448-1.69,25.82-5.071
						c8.372-3.381,16.008-7.971,22.837-13.776c6.826-5.802,12.636-12.593,17.388-20.368c4.751-7.775,7.912-16.058,9.462-24.848
						c0.079-0.449,0.129-0.871,0.144-1.267c0.011-0.394,0.062-0.816,0.141-1.268L1008.893,278.205z"/>
					
						<linearGradient id="SVGID_00000053529346115839593080000011211664068699785630_" gradientUnits="userSpaceOnUse" x1="892.7727" y1="328.0922" x2="893.6161" y2="328.0922">
						<stop  offset="0" style="stop-color:#8BCAFC"/>
						<stop  offset="0.9949" style="stop-color:#DB6569"/>
					</linearGradient>
					<path style="fill:url(#SVGID_00000053529346115839593080000011211664068699785630_);" d="M892.836,327.67h-0.064l0.843,0.844
						C893.353,328.236,893.093,328.031,892.836,327.67z"/>
				</g>
			</g>
		</g>
	</g>
</g>
</svg>
